<?xml version="1.0" standalone="no"?>
<!DOCTYPE svg PUBLIC "-//W3C//DTD SVG 20010904//EN"
 "http://www.w3.org/TR/2001/REC-SVG-20010904/DTD/svg10.dtd">
<svg version="1.0" xmlns="http://www.w3.org/2000/svg"
 width="457.000000pt" height="457.000000pt" viewBox="0 0 457.000000 457.000000"
 preserveAspectRatio="xMidYMid meet">
<metadata>
Created by potrace 1.11, written by Peter Selinger 2001-2013
</metadata>
<g transform="translate(0.000000,457.000000) scale(0.100000,-0.100000)"
fill="#000000" stroke="none">
<path d="M480 4123 c-66 -5 -170 -25 -176 -34 -3 -5 -9 -7 -14 -4 -11 7 -111
-56 -142 -89 -67 -71 -93 -114 -125 -203 -15 -43 -17 -115 -17 -721 -1 -431 3
-675 9 -680 6 -4 10 -11 10 -17 1 -21 29 -89 51 -124 39 -60 115 -130 170
-157 29 -14 55 -28 59 -32 11 -11 55 -14 282 -19 l223 -4 2 -287 c3 -263 4
-284 18 -257 33 66 135 240 142 243 4 2 8 12 8 22 0 10 4 20 9 22 5 2 27 37
49 78 90 170 94 175 141 178 58 4 77 -3 61 -23 -8 -9 -9 -15 -2 -15 6 0 8 -11
5 -27 -7 -36 -10 -293 -3 -293 3 0 6 -26 6 -58 2 -74 29 -164 61 -202 13 -17
22 -30 18 -30 -4 0 26 -34 66 -76 54 -55 93 -85 148 -112 74 -37 82 -39 136
-46 17 -3 32 -5 35 -6 3 -1 110 -2 238 -2 206 -1 232 -3 232 -17 1 -9 1 -161
1 -338 1 -186 5 -323 10 -323 8 0 11 8 8 26 0 4 3 10 8 13 9 6 73 109 73 117
0 3 34 63 75 135 41 71 75 133 75 136 0 4 6 14 14 22 8 9 26 41 42 71 15 30
30 57 33 60 4 3 17 26 30 51 l24 46 756 0 c416 1 772 4 791 8 51 10 65 13 68
15 1 2 5 3 10 4 21 3 125 62 129 73 3 7 8 11 12 9 9 -6 101 87 126 126 11 18
13 28 6 28 -7 0 1 19 17 43 16 23 30 45 31 50 0 4 3 17 6 30 2 12 6 51 8 85 2
35 8 67 14 70 9 6 14 30 13 77 0 116 -4 172 -13 184 -13 15 -10 263 2 271 5 3
8 25 7 50 -1 25 2 50 7 57 4 6 4 13 0 16 -4 3 -7 40 -6 84 0 43 -3 83 -7 88
-9 11 -7 251 3 275 3 8 5 44 3 80 -1 36 2 73 7 83 4 10 5 24 0 30 -5 7 -8 26
-6 42 1 17 -1 37 -4 45 -3 8 -7 40 -9 70 -6 85 -8 100 -17 100 -4 0 -7 6 -5
13 2 6 -10 29 -27 51 -16 21 -30 45 -31 53 -6 36 -148 174 -178 172 -5 0 -12
3 -15 8 -6 9 -99 48 -116 48 -5 0 -17 5 -25 10 -9 6 -262 10 -660 11 l-645 0
-7 77 c-7 76 -30 160 -50 184 -6 7 -7 13 -2 13 5 0 4 4 -1 8 -6 4 -23 26 -39
50 -27 40 -83 91 -131 119 -30 18 -79 38 -87 35 -5 -1 -8 1 -8 5 0 5 -16 9
-36 11 -20 1 -40 5 -45 8 -8 5 -1866 12 -1939 7z"/>
</g>
</svg>
