<?xml version="1.0" standalone="no"?>
<!DOCTYPE svg PUBLIC "-//W3C//DTD SVG 20010904//EN"
 "http://www.w3.org/TR/2001/REC-SVG-20010904/DTD/svg10.dtd">
<svg version="1.0" xmlns="http://www.w3.org/2000/svg"
 width="1191.000000pt" height="1191.000000pt" viewBox="0 0 1191.000000 1191.000000"
 preserveAspectRatio="xMidYMid meet">
<metadata>
Created by potrace 1.11, written by Peter Selinger 2001-2013
</metadata>
<g transform="translate(0.000000,1191.000000) scale(0.100000,-0.100000)"
fill="#000000" stroke="none">
<path d="M1422 10282 c-2 -7 -16 -12 -31 -12 -59 4 -102 0 -96 -10 4 -6 -6
-10 -24 -10 -16 0 -32 -4 -35 -9 -3 -5 -17 -8 -32 -8 -14 0 -30 -6 -34 -13 -4
-7 -15 -10 -24 -7 -8 3 -22 0 -30 -8 -8 -8 -24 -15 -36 -15 -12 0 -18 -4 -15
-10 3 -5 -3 -10 -14 -10 -12 0 -21 -4 -21 -9 0 -5 -16 -16 -35 -25 -19 -9 -37
-21 -40 -26 -3 -5 -11 -7 -18 -4 -7 2 -19 -7 -27 -20 -7 -14 -16 -23 -20 -21
-4 2 -13 -7 -20 -21 -8 -13 -19 -23 -26 -20 -7 3 -20 -6 -30 -20 -11 -13 -25
-24 -32 -24 -7 0 -10 -4 -7 -10 3 -5 -1 -10 -9 -10 -13 0 -22 -14 -28 -45 -2
-12 -24 -35 -33 -35 -10 0 -35 -28 -35 -39 0 -6 -4 -11 -10 -11 -5 0 -10 -9
-10 -20 0 -11 -4 -20 -10 -20 -5 0 -10 -7 -10 -16 0 -17 -23 -44 -38 -44 -6 0
-8 -9 -5 -20 3 -11 0 -20 -6 -20 -6 0 -11 -9 -11 -20 0 -11 -4 -20 -10 -20 -5
0 -10 -13 -10 -29 0 -17 -4 -33 -10 -36 -5 -3 -10 -19 -10 -36 0 -18 -5 -29
-14 -29 -8 0 -13 -8 -11 -17 1 -10 -3 -27 -9 -38 -7 -11 -12 -42 -11 -70 1
-27 -3 -53 -9 -57 -16 -11 -17 -2995 -1 -3023 6 -11 11 -48 10 -82 0 -41 4
-63 11 -63 7 0 11 -13 8 -35 -2 -21 3 -40 12 -49 7 -8 14 -22 14 -30 0 -9 4
-16 9 -16 5 0 8 -12 8 -26 0 -15 6 -30 13 -34 7 -4 10 -12 6 -18 -3 -6 1 -15
10 -20 10 -6 15 -16 11 -26 -4 -10 -1 -16 8 -16 10 0 15 -10 15 -27 0 -14 3
-24 6 -20 9 8 34 -18 34 -35 0 -8 9 -24 20 -36 11 -12 20 -28 20 -37 0 -8 8
-15 17 -15 9 0 14 -2 11 -5 -6 -7 152 -165 165 -165 6 0 23 -14 39 -31 17 -17
36 -28 44 -25 8 3 14 -1 14 -9 0 -9 10 -15 25 -15 14 0 25 -4 25 -10 0 -5 9
-10 20 -10 11 0 20 -4 20 -10 0 -5 9 -10 20 -10 11 0 20 -4 20 -10 0 -5 9 -10
20 -10 11 0 20 -4 20 -10 0 -5 9 -10 19 -10 10 0 21 -6 24 -13 3 -8 19 -13 39
-12 18 1 36 -3 40 -9 4 -5 26 -10 50 -11 24 0 50 -5 58 -10 9 -6 209 -10 505
-10 l490 0 3 -677 c1 -373 5 -678 8 -678 11 0 34 29 34 43 0 8 6 20 14 26 8 7
18 26 21 42 4 16 11 29 16 29 5 0 9 7 9 15 0 8 7 15 17 15 9 0 13 3 10 7 -4 3
0 17 8 30 9 13 12 23 9 23 -4 0 0 8 9 18 10 10 15 21 11 24 -3 3 6 15 20 26
15 11 26 29 26 41 0 12 5 21 10 21 6 0 10 9 10 21 0 11 5 17 10 14 6 -3 10 4
10 17 0 13 9 30 20 38 11 8 20 22 20 32 0 10 5 18 10 18 6 0 10 9 10 20 0 11
5 20 10 20 6 0 10 7 10 16 0 9 11 27 24 39 14 13 22 26 18 29 -3 4 -2 10 3 14
10 7 38 60 39 75 1 4 6 11 13 15 15 9 73 119 73 139 0 8 5 11 10 8 6 -3 10 1
10 10 0 9 5 13 10 10 6 -3 10 3 10 14 0 11 5 23 10 26 5 3 10 15 10 26 0 10 5
19 10 19 6 0 10 9 10 20 0 11 6 20 14 20 9 0 12 7 9 20 -4 14 0 20 11 20 10 0
15 4 12 9 -3 5 1 12 10 15 8 3 13 10 10 15 -4 5 0 15 7 23 8 7 13 21 11 31 -1
9 4 17 12 17 8 0 14 8 14 18 0 10 9 24 20 32 11 8 20 22 20 32 0 10 5 18 10
18 6 0 10 9 10 20 0 11 5 20 10 20 6 0 10 9 10 19 0 26 9 27 135 27 l110 -1 2
-445 c2 -245 3 -462 3 -483 0 -23 4 -36 10 -32 5 3 10 33 10 66 l0 59 3945 0
3945 0 0 40 c1 22 1 150 1 285 0 135 0 253 -1 263 0 16 -194 17 -3945 17
l-3946 0 3 115 3 115 1420 0 c1079 -1 1422 2 1427 11 4 7 23 10 42 9 22 -3 36
1 39 9 3 8 18 13 36 11 22 -2 31 2 31 12 0 11 7 14 26 10 16 -3 28 0 31 9 3 8
13 14 23 14 11 0 22 5 25 10 3 6 19 10 35 10 20 0 31 6 35 20 4 13 15 20 30
20 13 0 25 4 27 9 2 5 10 11 18 13 8 2 26 15 39 31 13 15 30 27 37 27 16 0
174 156 166 164 -3 3 2 6 11 6 10 0 17 8 17 20 0 12 7 20 18 21 9 0 992 0
2185 1 l2167 0 0 42 c1 56 1 607 1 629 -1 16 -106 17 -2071 17 l-2070 0 0 28
c-3 176 0 624 4 631 3 5 852 9 2066 9 1134 0 2063 2 2066 5 5 4 8 564 4 725 0
42 -20 22 -20 -22 l0 -43 -2060 -1 -2060 0 0 62 c-1 70 -1 437 0 539 l0 67
1965 0 c1303 0 1965 3 1965 10 0 6 -4 10 -9 10 -6 0 -8 9 -6 20 2 11 -1 20 -7
20 -13 0 -58 50 -58 65 -1 15 -47 65 -61 65 -7 0 -10 3 -6 6 8 8 -18 34 -34
34 -7 0 -10 3 -7 6 8 7 -58 65 -94 83 -16 8 -28 21 -28 28 0 8 -4 11 -10 8 -5
-3 -10 1 -10 10 0 9 -6 15 -12 14 -21 -3 -48 12 -48 27 0 8 -10 14 -25 14 -14
0 -25 3 -25 8 0 8 -49 32 -67 32 -7 0 -13 5 -13 10 0 6 -9 10 -20 10 -11 0
-20 5 -20 10 0 6 -7 10 -16 10 -8 0 -22 6 -30 14 -7 8 -23 12 -34 9 -11 -3
-20 0 -20 6 0 6 -13 11 -28 11 -15 0 -34 6 -40 12 -7 7 -28 11 -46 10 -21 -2
-35 2 -39 10 -3 10 -23 14 -68 13 -35 -1 -69 4 -75 9 -7 8 -456 11 -1492 11
l-1482 0 -1 35 c0 19 0 77 0 129 1 59 -3 99 -11 108 -6 8 -10 38 -9 69 1 33
-2 54 -8 54 -6 0 -11 12 -11 26 0 14 -7 32 -15 41 -9 8 -13 23 -10 33 3 10 0
20 -9 23 -8 3 -13 16 -12 31 2 14 -3 31 -10 37 -8 6 -11 15 -8 20 3 5 -2 12
-10 15 -9 3 -14 10 -11 14 2 4 -7 20 -20 36 -14 16 -23 34 -21 41 3 6 -2 14
-10 17 -8 3 -14 11 -14 19 0 7 -18 31 -40 53 -22 21 -40 44 -40 50 0 21 -100
114 -115 108 -9 -4 -15 0 -15 9 0 9 -9 19 -20 22 -11 3 -20 13 -20 21 0 8 -4
12 -10 9 -6 -3 -10 1 -10 11 0 11 -6 15 -20 11 -13 -3 -20 0 -20 9 0 8 -8 14
-17 14 -22 1 -55 25 -46 33 3 4 -6 7 -21 7 -16 0 -25 4 -21 10 4 6 -5 10 -20
10 -14 0 -24 4 -20 9 3 5 -9 9 -26 9 -20 -1 -35 5 -41 16 -5 9 -14 14 -20 10
-5 -3 -20 -2 -31 3 -50 23 -102 35 -148 35 -31 -1 -49 3 -49 11 0 18 -4781 17
-4788 -1z m128 -612 c0 -11 5 -20 11 -20 6 0 8 -7 5 -15 -3 -9 1 -18 10 -22 8
-3 13 -12 10 -20 -3 -7 1 -16 9 -19 8 -4 15 -15 15 -26 0 -29 46 -70 78 -68
57 4 93 0 87 -10 -4 -6 15 -10 49 -10 31 0 56 -2 56 -5 0 -10 -89 -95 -100
-95 -5 0 -10 -6 -10 -13 0 -7 -13 -23 -30 -37 -24 -20 -30 -32 -30 -65 0 -23
5 -46 12 -53 6 -6 12 -37 13 -67 1 -34 6 -60 14 -64 24 -15 -5 -20 -32 -6 -15
8 -27 12 -27 9 0 -2 -10 2 -23 11 -13 8 -27 12 -30 8 -4 -3 -7 1 -7 10 0 10
-7 15 -20 12 -13 -2 -20 2 -20 11 0 8 -7 14 -15 14 -8 0 -24 6 -35 12 -15 10
-22 10 -32 0 -6 -6 -20 -12 -30 -12 -10 0 -17 -5 -16 -12 2 -7 -6 -12 -17 -12
-11 0 -24 -6 -28 -13 -5 -8 -12 -11 -18 -8 -5 4 -12 0 -15 -8 -3 -8 -13 -14
-22 -13 -9 2 -23 -3 -30 -11 -18 -17 -32 -17 -32 2 0 8 5 15 10 15 6 0 10 23
9 55 -1 30 3 60 9 67 11 13 13 108 2 108 -7 0 -160 148 -160 155 0 3 22 5 48
5 26 0 53 5 60 12 6 6 35 11 64 11 39 -1 57 4 69 18 9 10 21 19 27 19 5 0 8 9
5 20 -3 12 1 22 10 26 9 3 13 13 10 25 -4 13 -1 19 8 17 7 -2 13 6 13 17 0 11
6 24 13 28 7 4 13 15 13 22 0 8 9 15 20 15 13 0 20 -7 20 -20z m1379 -17 c8
-21 20 -43 28 -51 7 -7 11 -17 8 -22 -3 -5 -1 -11 5 -15 5 -3 10 -15 10 -26 0
-10 6 -19 13 -19 7 0 18 -9 25 -20 10 -16 23 -20 72 -20 33 0 60 -4 60 -10 0
-5 26 -10 58 -10 49 -1 55 -2 40 -14 -10 -7 -18 -19 -18 -26 0 -7 -2 -11 -6
-8 -3 3 -34 -23 -69 -58 -58 -60 -63 -68 -67 -114 -2 -34 1 -50 9 -50 7 0 12
-20 12 -56 0 -36 4 -60 13 -65 9 -6 10 -11 2 -19 -8 -8 -15 -8 -25 2 -8 7 -20
13 -26 14 -30 2 -34 5 -27 16 5 8 2 9 -10 5 -10 -4 -24 -1 -33 8 -8 8 -19 13
-24 9 -5 -3 -12 2 -15 10 -3 9 -15 16 -25 16 -10 0 -19 4 -19 9 0 6 -9 9 -20
8 -11 -1 -20 -5 -20 -9 0 -4 -9 -8 -20 -8 -11 0 -20 -6 -20 -14 0 -8 -10 -13
-22 -12 -13 0 -22 -4 -21 -11 2 -7 -6 -10 -17 -8 -10 2 -24 -3 -30 -11 -7 -7
-16 -11 -21 -8 -5 3 -11 -1 -14 -8 -6 -15 -45 -22 -45 -8 0 4 4 10 9 12 5 2
11 30 12 63 1 33 7 63 12 66 14 10 10 97 -6 113 -8 8 -17 12 -21 9 -3 -4 -6
-2 -6 4 0 15 -86 103 -94 96 -3 -3 -6 1 -6 10 0 10 -7 17 -16 17 -8 0 -12 5
-9 10 3 6 28 10 56 10 27 0 49 5 49 10 0 6 25 10 56 10 45 0 62 5 85 25 16 13
29 26 28 27 -5 7 26 78 33 78 4 0 8 9 8 20 0 11 5 20 10 20 6 0 10 9 10 20 0
36 35 24 49 -17z m1366 22 c1 -5 6 -20 13 -31 6 -12 8 -24 5 -28 -3 -3 -1 -6
6 -6 10 0 30 -36 37 -67 1 -7 13 -23 27 -37 21 -21 35 -25 77 -25 28 1 56 -3
63 -10 6 -6 33 -11 59 -11 26 0 48 -2 48 -5 0 -11 -49 -55 -61 -55 -7 0 -10
-3 -6 -6 7 -8 -17 -34 -32 -34 -6 0 -11 -6 -11 -14 0 -8 -9 -18 -20 -21 -11
-3 -20 -13 -20 -21 0 -8 -4 -14 -8 -14 -14 0 -13 -90 1 -110 7 -11 12 -36 10
-56 -1 -21 3 -44 9 -51 19 -23 -7 -40 -30 -20 -10 9 -22 14 -25 11 -4 -4 -9 0
-13 9 -3 9 -14 14 -25 12 -10 -2 -19 0 -19 6 0 5 -9 9 -20 9 -11 0 -20 7 -20
15 0 8 -9 15 -19 15 -11 0 -23 5 -26 10 -3 6 -15 10 -26 10 -11 0 -17 -4 -14
-10 3 -5 -2 -10 -12 -10 -10 0 -27 -7 -37 -15 -10 -8 -23 -12 -27 -9 -5 3 -9
-1 -9 -10 0 -8 -8 -13 -17 -12 -10 2 -24 -3 -31 -11 -8 -7 -18 -11 -23 -8 -5
4 -9 -1 -9 -9 0 -14 -10 -16 -48 -7 -2 1 3 7 11 15 9 9 13 32 12 65 -1 33 3
55 11 62 8 6 14 29 14 51 0 30 -7 46 -29 68 -16 16 -32 26 -36 22 -3 -4 -5 -2
-3 4 2 5 -21 33 -49 61 -29 29 -53 54 -53 57 0 3 25 6 56 6 34 0 53 4 49 10
-5 9 64 16 103 11 16 -3 62 48 62 67 0 6 5 12 10 12 6 0 10 9 10 19 0 11 5 23
10 26 6 3 10 15 10 26 0 10 5 19 10 19 6 0 10 9 10 21 0 15 5 20 23 17 12 -2
22 -7 22 -13z m1311 0 c-3 -8 2 -19 11 -23 10 -6 14 -16 10 -26 -4 -10 -1 -16
8 -16 9 0 15 -10 15 -25 0 -14 5 -25 10 -25 6 0 10 -7 10 -15 0 -9 11 -27 25
-40 20 -21 34 -25 85 -25 33 0 60 -4 60 -10 0 -5 23 -10 50 -10 28 0 50 -2 50
-5 0 -10 -90 -95 -100 -95 -6 0 -9 -4 -6 -9 3 -5 -1 -12 -10 -15 -8 -3 -12
-11 -8 -17 4 -7 3 -9 -3 -6 -5 3 -17 -3 -26 -13 -19 -23 -21 -106 -3 -113 8
-3 12 -26 11 -61 -1 -31 2 -56 7 -56 4 0 8 -6 8 -13 0 -7 -9 -13 -20 -13 -11
0 -20 6 -20 14 0 8 -6 12 -12 10 -7 -3 -19 1 -26 8 -7 7 -19 11 -27 8 -9 -4
-15 0 -15 9 0 10 -7 15 -20 12 -13 -3 -20 2 -20 12 0 9 -6 13 -14 10 -8 -3
-20 1 -26 9 -14 16 -55 20 -45 4 6 -10 -7 -14 -34 -11 -7 2 -10 -2 -6 -8 5
-10 -8 -15 -19 -8 -2 1 -13 -7 -25 -17 -12 -11 -21 -15 -21 -11 0 4 -9 0 -20
-10 -11 -10 -20 -15 -20 -11 0 3 -10 0 -23 -9 -27 -17 -41 -10 -27 14 4 9 8
38 8 65 0 27 5 52 10 55 14 8 9 90 -6 116 -6 11 -12 17 -12 13 0 -7 -140 129
-140 137 0 3 22 5 49 5 28 0 53 5 56 10 3 6 31 10 61 10 57 0 104 26 104 59 0
9 7 25 15 35 8 10 12 22 10 26 -3 5 2 11 11 14 8 3 13 10 10 15 -3 5 1 14 9
21 8 7 15 19 15 26 0 8 9 14 21 14 15 0 19 -5 15 -15z m1104 -5 c0 -11 5 -20
10 -20 6 0 10 -9 10 -20 0 -11 5 -20 10 -20 6 0 10 -9 10 -20 0 -11 5 -20 10
-20 6 0 10 -10 10 -21 0 -12 12 -32 28 -45 22 -19 38 -24 85 -24 31 0 57 -4
57 -10 0 -5 23 -10 50 -10 28 0 50 -3 50 -7 -1 -10 -30 -49 -30 -40 0 4 -16
-8 -35 -27 -19 -20 -35 -41 -35 -47 0 -7 -3 -10 -6 -7 -3 3 -17 -6 -32 -21
-21 -21 -26 -35 -25 -69 1 -24 6 -49 11 -55 5 -7 10 -37 11 -67 1 -30 7 -58
14 -62 6 -4 9 -8 5 -9 -24 -5 -34 -4 -38 2 -3 4 -12 9 -20 11 -8 2 -21 9 -28
16 -8 7 -17 10 -22 7 -4 -3 -13 2 -20 10 -7 8 -16 12 -21 9 -5 -3 -12 2 -15
10 -3 9 -15 16 -25 16 -10 0 -19 4 -19 8 0 4 -9 8 -20 9 -11 1 -20 -2 -20 -8
0 -5 -9 -9 -19 -9 -10 0 -22 -7 -25 -16 -4 -9 -9 -14 -13 -11 -3 4 -15 1 -27
-5 -11 -7 -24 -12 -28 -13 -4 0 -13 -6 -19 -12 -7 -7 -19 -13 -26 -13 -7 0
-13 -4 -13 -8 0 -4 -9 -8 -20 -8 -11 0 -20 6 -20 14 0 7 5 10 10 7 11 -7 13 7
10 74 -1 24 3 47 9 51 7 3 13 25 14 48 2 39 -3 45 -76 121 -43 45 -83 81 -88
81 -6 0 -7 5 -4 10 3 6 28 10 56 10 27 0 49 5 49 10 0 6 27 10 60 10 45 0 62
4 66 15 4 8 10 13 14 10 9 -5 24 24 21 41 -1 7 5 14 14 18 8 3 15 15 15 26 0
11 5 20 10 20 6 0 10 9 10 20 0 11 5 20 10 20 6 0 10 9 10 20 0 13 7 20 20 20
13 0 20 -7 20 -20z m-5809 -1052 c1 -7 1 -17 0 -21 -1 -4 6 -15 14 -23 8 -9
13 -20 10 -25 -4 -5 -1 -9 4 -9 6 0 11 -9 11 -20 0 -11 5 -20 10 -20 6 0 10
-6 10 -14 0 -8 11 -23 25 -34 13 -11 21 -22 18 -26 -7 -7 21 -9 81 -6 22 1 42
-4 46 -11 5 -7 26 -12 53 -11 25 1 49 -2 52 -8 3 -5 -1 -10 -9 -10 -9 0 -16
-7 -16 -16 0 -8 -4 -12 -10 -9 -5 3 -10 1 -10 -6 0 -6 -27 -37 -59 -68 -52
-49 -60 -61 -62 -99 -2 -27 1 -46 9 -51 9 -5 12 -26 10 -66 -3 -40 0 -59 9
-62 20 -8 15 -23 -7 -23 -11 0 -20 5 -20 10 0 6 -6 10 -13 10 -18 0 -67 24
-67 33 0 4 -11 7 -24 7 -13 0 -27 7 -30 16 -3 8 -10 13 -15 9 -6 -3 -14 2 -19
11 -12 21 -11 21 -59 -9 -24 -15 -49 -27 -58 -27 -8 0 -15 -4 -15 -10 0 -5 -9
-10 -20 -10 -11 0 -20 -4 -20 -10 0 -5 -9 -10 -20 -10 -11 0 -20 -4 -20 -10 0
-5 -9 -10 -20 -10 -21 0 -28 16 -9 22 7 2 11 25 10 58 0 29 4 59 9 65 6 7 11
31 12 54 1 36 -4 46 -40 81 -23 21 -42 44 -42 50 0 6 -4 8 -10 5 -5 -3 -10 1
-10 9 0 9 -7 16 -16 16 -9 0 -18 9 -21 20 -3 11 -9 20 -14 20 -5 0 -9 4 -9 9
0 4 21 8 46 8 25 0 49 5 53 10 3 6 32 11 63 12 47 1 62 6 83 27 15 15 24 32
21 40 -3 8 1 14 10 14 10 0 14 6 10 15 -3 9 1 18 9 21 8 4 15 14 15 24 0 11 5
22 10 25 6 3 10 15 10 26 0 21 39 28 41 7z m2640 2 c1 -5 2 -15 3 -20 0 -6 7
-15 15 -19 7 -5 10 -14 7 -20 -4 -6 0 -14 8 -17 9 -3 16 -15 16 -25 0 -10 5
-19 11 -19 6 0 9 -9 6 -20 -3 -11 0 -20 5 -20 6 0 19 -9 28 -20 14 -16 31 -21
75 -21 33 -1 58 -6 61 -13 3 -7 24 -10 54 -9 28 1 50 0 50 -4 0 -4 -38 -44
-85 -89 -82 -80 -85 -85 -85 -128 0 -24 4 -46 10 -48 5 -1 10 -31 11 -65 1
-35 6 -63 10 -63 5 0 9 -4 9 -10 0 -5 -9 -10 -20 -10 -11 0 -20 5 -20 10 0 6
-9 10 -20 10 -11 0 -20 5 -20 10 0 6 -9 10 -20 10 -11 0 -20 5 -20 10 0 6 -9
10 -19 10 -11 0 -21 5 -23 11 -2 5 -12 12 -23 13 -11 2 -19 9 -18 15 4 14 -30
9 -51 -8 -8 -7 -20 -10 -26 -6 -5 3 -10 -1 -10 -10 0 -11 -5 -15 -15 -11 -9 3
-18 -1 -21 -9 -4 -8 -12 -15 -18 -15 -18 0 -66 -24 -66 -32 0 -5 -9 -8 -20 -8
-11 0 -20 7 -20 16 0 8 4 13 8 10 5 -3 8 22 7 56 0 40 4 62 12 65 8 3 13 22
13 47 0 36 -7 48 -59 103 -32 34 -61 59 -65 56 -3 -4 -6 1 -6 11 0 11 -4 14
-12 10 -8 -5 -9 -2 -5 9 4 11 1 17 -8 17 -8 0 -15 5 -15 10 0 6 25 10 55 10
30 0 55 4 55 10 0 5 24 9 54 9 45 -1 59 3 78 23 29 30 48 63 48 83 0 8 5 15
10 15 6 0 10 9 10 20 0 11 5 20 10 20 6 0 10 8 10 18 0 10 3 22 7 25 10 10 33
8 34 -3z m-1371 -36 c0 -8 5 -14 10 -14 6 0 10 -11 10 -25 0 -14 5 -25 10 -25
6 0 10 -9 10 -20 0 -11 5 -20 10 -20 6 0 10 -9 10 -20 0 -12 7 -20 17 -20 9 0
14 -3 11 -6 -4 -3 1 -13 10 -22 12 -12 32 -17 72 -15 30 0 58 -4 61 -9 4 -6
28 -11 53 -12 25 0 46 -4 46 -8 0 -5 -3 -8 -6 -7 -4 0 -14 -11 -24 -25 -9 -15
-20 -23 -23 -19 -4 3 -7 1 -7 -6 0 -7 -23 -35 -51 -61 -49 -46 -52 -51 -51
-96 1 -26 5 -50 10 -53 5 -3 10 -31 11 -61 1 -30 6 -56 11 -58 18 -6 10 -22
-10 -22 -11 0 -20 5 -20 10 0 6 -9 10 -20 10 -11 0 -20 5 -20 10 0 6 -9 10
-20 10 -11 0 -20 5 -20 10 0 6 -11 10 -25 10 -14 0 -25 5 -25 10 0 6 -9 10
-20 10 -11 0 -20 6 -20 14 0 9 -9 14 -20 13 -11 -1 -20 -7 -20 -14 0 -7 -9
-13 -20 -13 -11 0 -20 -4 -20 -10 0 -5 -11 -10 -25 -10 -14 0 -25 -4 -25 -10
0 -5 -9 -10 -20 -10 -11 0 -20 -4 -20 -10 0 -5 -9 -10 -20 -10 -11 0 -20 -4
-20 -10 0 -5 -9 -10 -20 -10 -21 0 -28 16 -9 22 6 2 11 30 11 66 1 34 4 59 8
57 5 -3 10 16 12 43 3 45 2 49 -49 101 -29 29 -53 57 -53 62 0 5 -7 9 -16 9
-9 0 -18 9 -21 20 -3 11 -12 20 -20 20 -8 0 -11 5 -8 10 3 6 28 10 56 10 27 0
49 4 49 9 0 6 26 10 59 10 50 -1 62 3 85 26 14 14 26 32 26 40 0 8 5 15 10 15
6 0 10 9 10 20 0 11 5 20 11 20 6 0 9 7 6 15 -4 8 -2 17 4 21 6 3 14 17 19 30
10 25 40 24 40 -2z m2705 -53 c-3 -5 2 -16 10 -24 8 -9 15 -19 15 -24 0 -15
25 -63 33 -63 4 0 7 -8 7 -18 0 -35 50 -66 108 -67 29 0 56 -6 60 -11 4 -6 26
-10 50 -9 23 1 45 -2 48 -6 6 -10 -63 -79 -79 -79 -5 0 -8 -3 -4 -6 7 -8 -38
-54 -53 -54 -6 0 -9 -4 -6 -9 4 -5 1 -11 -6 -13 -16 -6 -19 -108 -3 -108 8 0
11 -18 10 -52 -1 -35 3 -59 13 -70 14 -17 13 -18 -12 -18 -16 0 -25 4 -21 10
4 6 -5 10 -19 10 -14 0 -26 5 -26 10 0 6 -9 10 -20 10 -11 0 -20 5 -20 10 0 6
-9 10 -20 10 -11 0 -20 5 -20 10 0 6 -9 10 -20 10 -11 0 -20 4 -20 9 0 5 -9
11 -20 14 -13 3 -20 0 -20 -9 0 -8 -10 -14 -26 -14 -14 0 -23 -4 -19 -10 4 -6
-5 -10 -19 -10 -14 0 -26 -3 -26 -7 0 -9 -49 -33 -67 -33 -7 0 -13 -4 -13 -10
0 -5 -9 -10 -20 -10 -11 0 -20 5 -20 10 0 6 4 10 9 10 5 0 10 25 10 56 0 31 4
61 10 67 6 6 11 30 11 54 0 41 -4 47 -85 125 -47 45 -85 85 -85 88 0 4 23 6
51 5 31 -1 53 3 55 10 3 7 27 11 62 10 50 -1 59 2 79 26 13 15 23 31 23 37 0
5 7 15 15 22 8 7 13 16 10 20 -3 4 2 13 10 20 8 7 12 16 9 21 -3 5 2 16 10 25
9 9 14 20 11 25 -4 5 6 9 20 9 14 0 24 -4 20 -9z m1463 2 c-4 -13 24 -73 33
-73 5 0 9 -9 9 -19 0 -11 5 -23 10 -26 6 -4 8 -11 5 -16 -4 -5 1 -12 9 -15 9
-3 16 -13 16 -21 0 -8 5 -11 10 -8 6 3 10 0 10 -7 0 -10 16 -13 58 -13 31 0
62 -4 68 -10 7 -7 29 -11 50 -10 22 1 42 -3 46 -9 7 -11 -15 -36 -33 -36 -7 0
-10 -3 -7 -6 4 -3 -12 -22 -35 -42 -74 -66 -85 -84 -85 -130 0 -24 5 -45 11
-48 8 -3 12 -27 11 -64 -1 -33 2 -60 7 -60 5 0 9 -4 9 -10 0 -5 -9 -10 -20
-10 -11 0 -20 5 -20 10 0 6 -9 10 -20 10 -11 0 -20 5 -20 10 0 6 -9 10 -20 10
-11 0 -20 5 -20 10 0 6 -9 10 -20 10 -11 0 -20 5 -20 10 0 6 -12 10 -26 10
-14 0 -23 4 -19 10 4 6 -5 10 -19 10 -14 0 -26 -4 -26 -10 0 -5 -9 -10 -20
-10 -11 0 -20 -4 -20 -10 0 -5 -9 -10 -20 -10 -11 0 -20 -4 -20 -10 0 -5 -9
-10 -20 -10 -11 0 -20 -4 -20 -10 0 -5 -9 -10 -20 -10 -11 0 -20 -4 -20 -10 0
-5 -11 -10 -25 -10 -14 0 -25 5 -25 10 0 6 6 10 14 10 11 0 14 14 12 60 -2 46
0 60 11 60 10 0 13 14 12 53 -2 48 -5 55 -44 87 -23 19 -40 38 -38 43 2 4 0 7
-5 7 -11 0 -82 68 -82 79 0 4 25 6 54 6 30 -1 53 2 50 7 -6 9 0 10 69 12 37 1
52 7 72 28 14 15 25 32 25 38 0 6 7 18 15 27 8 8 13 19 10 24 -4 5 -1 9 4 9 6
0 11 9 11 20 0 11 5 20 10 20 6 0 10 9 10 20 0 15 7 20 25 20 14 0 24 -3 23
-7z m-3438 -1033 c0 -11 5 -20 10 -20 6 0 10 -9 10 -20 0 -11 5 -20 10 -20 6
0 10 -7 10 -16 0 -8 7 -22 15 -31 8 -8 13 -18 10 -22 -2 -5 8 -19 23 -32 21
-19 38 -24 76 -24 27 1 54 -4 60 -10 6 -6 31 -12 55 -13 24 -1 46 -4 49 -7 2
-2 -33 -41 -79 -85 -82 -80 -83 -81 -80 -128 1 -25 6 -49 10 -52 4 -3 8 -30 8
-60 1 -30 6 -56 12 -58 17 -6 2 -22 -20 -22 -11 0 -17 5 -14 10 4 6 -5 10 -19
10 -14 0 -26 5 -26 10 0 6 -9 10 -20 10 -11 0 -20 5 -20 10 0 6 -9 10 -20 10
-11 0 -20 5 -20 10 0 6 -9 10 -20 10 -11 0 -20 5 -20 10 0 6 -9 10 -20 10 -11
0 -20 -4 -20 -10 0 -5 -9 -10 -20 -10 -11 0 -20 -4 -20 -10 0 -5 -9 -10 -20
-10 -11 0 -20 -4 -20 -10 0 -5 -11 -10 -25 -10 -14 0 -25 -3 -25 -7 0 -9 -49
-33 -67 -33 -7 0 -13 5 -13 10 0 6 5 10 10 10 6 0 10 26 10 59 0 33 5 61 10
63 6 2 11 24 12 49 0 42 -3 49 -65 112 -37 37 -72 67 -78 67 -7 0 -9 3 -6 7 4
3 -1 12 -11 19 -15 12 -11 14 28 15 25 1 49 1 53 0 4 -1 14 5 22 13 9 8 32 13
61 11 39 -1 51 3 76 27 16 15 26 32 23 38 -3 5 1 12 9 17 8 4 15 12 15 16 0
15 26 67 33 67 5 0 8 9 8 20 0 13 7 20 20 20 13 0 20 -7 20 -20z m1375 0 c-3
-11 -2 -20 3 -20 10 0 36 -55 31 -65 -2 -4 4 -11 14 -16 9 -6 17 -18 17 -28 0
-31 50 -57 107 -56 34 0 54 -4 58 -12 3 -8 23 -13 55 -13 55 0 63 -10 25 -30
-14 -7 -23 -15 -21 -17 2 -3 -14 -21 -37 -41 -70 -63 -82 -78 -84 -98 -1 -10
-2 -24 -3 -29 -6 -26 1 -55 13 -55 14 0 17 -81 4 -91 -5 -3 -1 -13 7 -22 19
-19 20 -27 3 -27 -18 0 -67 24 -67 33 0 4 -6 7 -13 7 -18 0 -67 24 -67 33 0 4
-12 7 -26 7 -14 0 -23 4 -19 10 4 6 -5 10 -19 10 -14 0 -26 -4 -26 -10 0 -5
-9 -10 -20 -10 -11 0 -20 -4 -20 -10 0 -5 -9 -10 -20 -10 -11 0 -20 -4 -20
-10 0 -5 -9 -10 -20 -10 -11 0 -20 -4 -20 -10 0 -5 -12 -10 -26 -10 -14 0 -23
-4 -19 -10 4 -6 -5 -10 -21 -10 -25 0 -26 2 -12 18 9 11 14 36 13 70 -1 33 3
52 10 52 16 0 14 102 -3 108 -7 2 -10 8 -6 13 3 5 1 9 -5 9 -12 0 -144 130
-138 136 2 3 25 5 50 6 25 0 48 6 50 12 3 8 26 12 62 11 39 -1 58 2 62 12 3 7
8 11 12 8 9 -5 51 70 51 91 0 8 3 14 8 14 8 0 32 49 32 67 0 7 11 13 26 13 21
0 24 -4 19 -20z m1335 0 c0 -11 5 -20 10 -20 6 0 10 -9 10 -20 0 -11 5 -20 10
-20 6 0 10 -9 10 -20 0 -11 5 -20 10 -20 6 0 10 -7 10 -16 0 -9 10 -28 23 -43
19 -23 29 -26 79 -26 40 1 59 -3 63 -13 3 -8 18 -13 37 -12 52 3 68 1 68 -10
0 -5 -7 -10 -17 -10 -9 0 -14 -3 -10 -6 8 -8 -18 -34 -34 -34 -7 0 -10 -3 -6
-6 7 -8 -17 -34 -32 -34 -6 0 -11 -4 -11 -8 0 -14 -36 -52 -49 -52 -16 0 -12
-107 4 -113 6 -3 10 -28 10 -61 -1 -41 2 -56 12 -56 8 0 11 -4 8 -10 -3 -5
-15 -10 -26 -10 -10 0 -19 5 -19 10 0 6 -9 10 -20 10 -11 0 -20 5 -20 10 0 6
-9 10 -20 10 -11 0 -20 5 -20 10 0 6 -9 10 -20 10 -11 0 -20 5 -20 10 0 6 -9
10 -20 10 -11 0 -20 5 -20 10 0 6 -9 10 -19 10 -11 0 -23 -4 -26 -10 -3 -5
-15 -10 -26 -10 -10 0 -19 -4 -19 -10 0 -5 -9 -10 -20 -10 -11 0 -20 -3 -20
-7 0 -9 -48 -33 -66 -33 -6 0 -14 -7 -18 -15 -6 -15 -36 -10 -36 7 0 5 4 7 9
3 6 -3 9 21 8 60 -1 47 2 65 11 65 9 0 12 16 11 53 -2 47 -6 56 -30 73 -15 10
-34 29 -40 41 -7 13 -16 23 -21 23 -13 0 -38 26 -38 40 0 6 -4 9 -9 6 -5 -3
-12 1 -15 9 -3 8 -7 18 -8 22 -2 4 17 6 41 4 28 -2 47 2 52 10 4 8 30 13 64
14 37 1 59 6 65 15 6 8 10 11 10 7 0 -16 30 22 30 38 0 8 6 18 14 21 8 3 12
12 9 21 -4 9 1 19 11 25 9 5 14 13 11 19 -4 5 0 12 9 15 8 3 13 14 11 25 -3
15 2 19 21 19 17 0 24 -5 24 -20z m1160 0 c0 -11 5 -20 10 -20 6 0 10 -9 10
-20 0 -11 6 -20 14 -20 8 0 13 -8 12 -17 -2 -10 0 -20 5 -23 4 -3 9 -12 11
-19 5 -22 31 -51 40 -45 4 3 8 -1 8 -9 0 -11 14 -14 56 -12 39 1 58 -3 61 -12
3 -7 15 -13 27 -12 11 1 37 1 56 0 31 -1 33 -3 18 -15 -10 -7 -15 -16 -11 -19
3 -4 1 -7 -6 -7 -14 0 -81 -67 -73 -75 3 -3 0 -5 -7 -5 -6 0 -23 -11 -36 -25
-20 -19 -25 -34 -25 -75 0 -27 5 -50 10 -50 6 0 10 -27 10 -60 0 -33 4 -60 10
-60 6 0 10 -4 10 -10 0 -5 -9 -10 -20 -10 -11 0 -20 5 -20 11 0 6 -7 8 -15 5
-9 -3 -18 1 -21 9 -4 8 -17 15 -30 15 -13 0 -24 5 -24 10 0 6 -7 10 -15 10 -8
0 -15 5 -15 10 0 6 -11 10 -25 10 -14 0 -25 5 -25 10 0 6 -9 10 -20 10 -11 0
-20 -4 -20 -10 0 -5 -9 -10 -20 -10 -11 0 -20 -4 -20 -10 0 -5 -9 -10 -20 -10
-11 0 -20 -4 -20 -10 0 -5 -9 -10 -20 -10 -11 0 -20 -4 -20 -10 0 -5 -8 -10
-18 -10 -10 0 -23 -5 -29 -11 -7 -7 -20 -9 -30 -5 -14 6 -15 9 -4 15 8 6 13
28 12 65 0 38 4 56 12 56 8 0 13 16 12 48 0 47 -2 50 -82 130 -46 44 -83 83
-83 86 0 3 22 6 49 6 32 0 51 5 54 13 4 10 21 13 58 11 45 -2 57 2 78 23 14
13 26 32 27 41 2 9 8 18 13 20 6 2 11 12 11 23 0 10 5 19 10 19 6 0 10 9 10
20 0 11 5 20 10 20 6 0 10 9 10 20 0 13 7 20 20 20 13 0 20 -7 20 -20z m-5220
-21 c0 -11 5 -19 10 -19 6 0 10 -9 10 -20 0 -11 5 -20 10 -20 6 0 10 -9 10
-20 0 -11 5 -20 10 -20 6 0 10 -11 10 -24 0 -16 7 -27 20 -31 11 -3 20 -13 20
-21 0 -11 13 -13 54 -12 29 1 60 -3 67 -9 8 -6 31 -10 52 -9 21 1 43 -1 48 -5
6 -3 -28 -44 -74 -90 -81 -81 -84 -86 -86 -131 -1 -35 3 -48 13 -48 10 0 13
-12 11 -47 -2 -28 3 -57 11 -69 12 -20 11 -22 -7 -27 -12 -3 -22 0 -26 9 -3 8
-14 14 -24 14 -10 0 -19 5 -19 10 0 6 -9 10 -20 10 -11 0 -20 5 -20 10 0 6 -9
10 -20 10 -11 0 -20 5 -20 10 0 6 -9 10 -20 10 -11 0 -20 5 -20 10 0 16 -26
12 -65 -10 -20 -11 -42 -20 -50 -20 -8 0 -15 -4 -15 -10 0 -5 -9 -10 -19 -10
-10 0 -22 -7 -25 -16 -3 -8 -11 -12 -17 -8 -6 3 -15 1 -19 -7 -10 -15 -38 -21
-46 -8 -3 5 2 12 10 15 11 4 15 20 14 59 -1 30 3 60 9 67 12 15 16 98 4 98 -4
0 -14 11 -21 25 -7 14 -17 25 -21 25 -12 0 -58 48 -51 54 3 3 -1 6 -8 6 -12 0
-62 51 -56 57 2 2 23 5 47 6 24 1 50 6 58 11 7 5 38 8 67 7 43 -1 54 2 54 15
0 8 4 13 8 10 5 -3 16 8 26 25 9 16 14 29 11 29 -4 0 1 7 9 16 9 8 14 20 11
25 -4 5 1 9 9 9 9 0 13 7 11 20 -2 13 2 20 11 20 8 0 13 3 13 8 -1 4 -1 14 0
24 2 23 41 11 41 -13z m-530 -1109 c0 -19 3 -25 18 -36 9 -6 13 -18 9 -28 -4
-10 -1 -16 8 -16 8 0 15 -9 15 -20 0 -11 5 -20 10 -20 6 0 10 -7 10 -15 0 -9
12 -27 26 -42 20 -20 35 -25 77 -25 29 -1 57 -4 62 -9 6 -4 30 -9 54 -10 50
-3 54 -8 35 -34 -8 -10 -14 -16 -14 -13 0 4 -31 -25 -70 -63 -66 -66 -70 -73
-70 -115 0 -24 5 -44 10 -44 6 0 10 -28 10 -65 0 -36 4 -64 9 -63 5 2 10 -1
10 -7 1 -5 -7 -11 -19 -13 -11 -2 -20 1 -20 7 0 6 -9 11 -19 11 -11 0 -21 4
-23 9 -1 5 -10 11 -18 13 -8 2 -21 9 -28 16 -8 7 -17 10 -22 7 -4 -3 -11 2
-14 11 -3 8 -11 12 -17 8 -6 -3 -15 -1 -19 7 -9 14 -40 22 -40 10 0 -5 -20
-16 -45 -27 -25 -10 -45 -22 -45 -26 0 -4 -9 -8 -20 -8 -11 0 -20 -5 -20 -11
0 -6 -6 -9 -12 -6 -7 2 -21 -2 -30 -11 -10 -8 -25 -12 -35 -8 -16 7 -16 8 -2
16 12 7 17 25 18 67 0 31 5 59 10 63 6 3 10 26 9 50 0 35 -6 49 -27 67 -14 13
-30 23 -34 23 -5 0 -6 3 -4 8 5 9 -50 62 -57 54 -3 -3 -6 1 -6 9 0 8 -9 20
-20 27 -31 19 -24 31 18 30 60 -1 74 1 67 11 -3 6 19 9 56 9 57 -1 63 0 90 31
16 19 26 37 23 42 -3 5 0 9 5 9 6 0 11 9 11 20 0 11 5 20 10 20 6 0 10 9 10
20 0 11 4 20 9 20 5 0 12 11 15 25 6 24 36 36 36 15z m1150 -10 c0 -11 5 -20
10 -20 6 0 10 -11 10 -24 0 -13 7 -26 15 -30 8 -3 12 -12 9 -19 -3 -8 2 -17
11 -21 9 -3 13 -10 10 -16 -7 -11 41 -59 59 -61 6 0 31 -1 56 -1 25 0 48 -5
52 -11 3 -6 27 -10 52 -10 48 1 56 -8 31 -33 -8 -9 -15 -12 -15 -7 0 4 -8 -4
-18 -20 -10 -15 -22 -24 -25 -20 -4 3 -7 1 -7 -5 0 -6 -19 -30 -42 -52 -36
-36 -41 -47 -40 -82 1 -23 6 -46 11 -52 5 -6 8 -31 8 -56 0 -26 5 -56 12 -68
10 -19 9 -22 -9 -22 -11 0 -23 6 -26 14 -3 8 -12 12 -20 9 -7 -3 -16 2 -20 10
-3 9 -12 13 -19 11 -7 -3 -16 -1 -20 5 -3 6 -15 11 -26 11 -11 0 -19 7 -19 16
0 10 -5 14 -15 10 -9 -3 -18 1 -21 8 -6 16 -29 15 -45 -1 -6 -6 -18 -9 -25 -6
-8 3 -14 0 -14 -5 0 -12 -55 -42 -77 -42 -7 0 -13 -7 -13 -16 0 -13 -3 -14
-14 -5 -10 9 -16 8 -26 -4 -14 -16 -40 -20 -40 -6 0 5 5 11 11 13 7 2 11 28
10 67 -1 39 3 60 9 56 9 -6 16 47 10 84 -1 8 -24 37 -51 64 -27 27 -49 53 -49
58 0 5 -6 9 -14 9 -8 0 -18 9 -21 20 -4 11 -11 18 -16 15 -5 -4 -9 1 -9 9 0
11 9 14 36 12 19 -1 46 3 59 10 13 7 44 12 69 12 44 0 93 22 79 35 -3 4 1 7
10 7 10 0 17 8 17 20 0 11 5 20 10 20 6 0 10 9 10 19 0 11 5 23 10 26 6 3 10
15 10 26 0 11 5 17 10 14 6 -3 10 2 10 13 0 22 8 32 27 32 7 0 13 -9 13 -20z
m1374 4 c3 -9 3 -20 0 -25 -3 -5 0 -8 8 -7 8 2 12 -4 10 -15 -2 -9 4 -20 13
-23 8 -3 15 -15 15 -25 0 -10 5 -19 10 -19 6 0 10 -7 10 -15 0 -9 12 -28 27
-42 22 -23 34 -27 77 -25 27 0 56 -4 64 -10 7 -7 31 -11 52 -10 21 2 41 -2 45
-8 3 -5 2 -10 -3 -10 -5 0 -15 -11 -22 -25 -7 -13 -16 -23 -19 -22 -3 1 -31
-24 -62 -55 -50 -51 -56 -62 -57 -102 -1 -26 2 -46 8 -46 6 0 10 -26 10 -59 0
-33 5 -63 10 -66 6 -3 10 -10 10 -16 0 -14 -30 -11 -47 6 -8 8 -19 13 -24 10
-5 -4 -9 -1 -9 4 0 6 -9 11 -20 11 -11 0 -20 7 -20 15 0 9 -6 12 -16 8 -10 -4
-20 1 -26 11 -5 9 -14 14 -19 10 -6 -3 -16 1 -22 10 -11 14 -15 14 -39 2 -16
-8 -28 -12 -28 -8 0 4 -7 -1 -15 -12 -7 -10 -18 -15 -23 -12 -5 3 -15 0 -20
-7 -6 -7 -27 -19 -47 -27 -19 -7 -35 -17 -35 -22 0 -11 -37 -10 -44 1 -3 5 0
11 7 14 9 3 13 22 12 57 -1 31 4 57 11 65 7 7 13 32 12 56 0 43 -15 69 -39 69
-7 0 -10 3 -6 6 8 8 -18 34 -34 34 -7 0 -10 3 -7 6 7 7 -59 74 -72 74 -6 0
-10 6 -10 14 0 10 13 14 50 12 30 -1 51 3 54 10 3 7 25 12 55 11 39 0 57 6 85
27 22 16 33 32 30 41 -4 8 -1 15 5 15 6 0 11 9 11 19 0 11 5 21 11 23 5 2 11
10 13 18 12 59 46 90 60 54z m1316 -6 c0 -9 5 -20 10 -23 6 -3 10 -15 10 -26
0 -10 5 -19 10 -19 6 0 10 -9 10 -20 0 -11 5 -20 11 -20 5 0 8 -3 5 -8 -2 -4
8 -22 23 -41 26 -31 31 -33 89 -33 34 0 59 -4 56 -9 -5 -9 7 -12 69 -12 25 1
37 -4 37 -13 0 -8 -4 -14 -9 -14 -12 0 -71 -58 -71 -70 0 -6 -7 -10 -16 -10
-8 0 -12 -4 -9 -10 3 -5 -1 -10 -10 -10 -9 0 -13 -4 -10 -10 3 -5 1 -10 -5
-10 -35 0 -55 -93 -26 -123 7 -7 11 -31 11 -55 -1 -24 4 -54 11 -68 12 -22 11
-24 -12 -24 -16 0 -24 6 -24 18 0 14 -2 15 -10 2 -8 -12 -10 -12 -16 3 -3 9
-16 17 -29 17 -13 0 -25 7 -29 15 -3 8 -12 12 -21 9 -10 -4 -15 0 -15 11 0 9
-5 13 -11 10 -5 -4 -18 -1 -27 7 -21 18 -48 17 -44 -1 2 -10 -4 -12 -23 -7
-18 5 -25 2 -25 -9 0 -8 -9 -15 -20 -15 -11 0 -20 -5 -20 -11 0 -6 -7 -8 -15
-5 -9 3 -18 -1 -21 -9 -4 -8 -17 -15 -31 -15 -13 0 -21 -4 -18 -10 3 -5 -3
-10 -14 -10 -22 0 -28 14 -11 25 6 4 9 29 7 56 -2 32 1 54 10 60 7 6 12 31 11
57 -1 41 -5 51 -42 85 -22 21 -40 43 -38 50 2 7 1 9 -3 5 -8 -8 -86 63 -79 73
2 5 21 8 42 7 54 -1 64 1 58 11 -3 5 24 8 59 7 39 0 65 3 65 9 0 6 9 17 20 25
11 8 20 22 20 32 0 10 5 18 10 18 6 0 10 9 10 20 0 11 6 20 14 20 8 0 13 10
12 23 -1 13 4 21 12 19 8 -1 11 6 8 23 -4 21 -1 24 20 23 15 -2 24 -9 24 -20z
m1492 0 c-1 -9 5 -19 14 -22 9 -3 14 -13 11 -20 -3 -8 1 -17 9 -20 9 -3 13
-10 10 -15 -4 -5 1 -16 9 -24 8 -9 15 -22 15 -29 0 -8 12 -25 27 -38 22 -19
38 -24 77 -22 28 1 56 -4 63 -10 7 -6 34 -11 58 -11 25 0 45 -2 45 -5 0 -3
-20 -25 -44 -48 -25 -23 -42 -45 -39 -48 4 -3 1 -6 -6 -6 -16 0 -42 -26 -34
-34 4 -3 1 -6 -6 -6 -25 0 -38 -26 -38 -78 -1 -28 3 -49 8 -46 8 5 14 -63 10
-108 -1 -9 6 -18 16 -21 17 -4 17 -4 0 -12 -11 -5 -24 -2 -35 7 -9 9 -23 13
-29 11 -7 -3 -13 -1 -13 4 0 4 -15 14 -32 22 -18 8 -39 19 -47 25 -7 5 -20 11
-29 12 -8 2 -18 6 -21 11 -9 13 -31 10 -40 -6 -5 -7 -14 -10 -20 -7 -6 4 -14
0 -17 -9 -4 -9 -13 -14 -20 -11 -7 3 -18 -2 -22 -11 -6 -10 -16 -14 -26 -10
-10 4 -16 1 -16 -8 0 -8 -9 -15 -20 -15 -11 0 -20 -4 -20 -10 0 -5 -9 -10 -19
-10 -11 0 -23 5 -26 10 -3 6 0 10 9 10 11 0 14 13 14 55 -1 30 4 60 10 67 6 8
11 34 10 58 0 35 -6 49 -27 67 -14 13 -30 23 -35 23 -5 0 -6 3 -3 6 4 4 -18
29 -48 57 -30 27 -52 54 -49 59 3 5 23 7 45 5 23 -2 43 1 49 8 7 8 33 13 66
13 47 -1 59 3 80 25 13 14 24 33 24 42 0 8 5 15 10 15 6 0 10 9 10 20 0 11 5
20 10 20 6 0 10 9 10 20 0 11 7 23 16 27 8 3 13 11 10 18 -6 17 4 27 24 22 8
-1 14 -10 12 -19z"/>
<path d="M3590 3823 c0 -7 5 -13 10 -13 6 0 10 -7 10 -16 0 -9 14 -29 30 -44
17 -15 30 -33 30 -40 0 -6 18 -29 40 -50 22 -21 40 -42 40 -47 0 -4 10 -13 23
-18 12 -6 21 -16 20 -23 -2 -7 2 -12 7 -12 13 0 100 -86 100 -99 0 -6 7 -8 15
-5 9 4 26 -6 43 -24 15 -16 37 -32 47 -34 11 -2 19 -10 17 -17 -1 -7 2 -10 7
-6 6 3 22 -2 36 -11 14 -9 25 -12 25 -8 0 5 4 3 9 -4 4 -7 18 -14 29 -15 12
-1 22 -7 22 -14 0 -7 9 -13 20 -13 11 0 20 -4 20 -8 0 -4 12 -9 27 -10 15 -1
30 -7 34 -13 3 -6 9 -10 13 -10 23 3 36 0 31 -9 -4 -6 12 -10 39 -10 25 0 46
-4 46 -10 0 -6 26 -10 59 -10 34 0 61 -5 63 -11 2 -7 174 -11 575 -11 l572 0
0 -787 c0 -432 0 -798 0 -813 1 -28 21 -41 21 -14 0 8 3 16 8 18 10 4 52 87
52 102 0 6 9 18 20 26 11 8 20 20 20 28 0 7 7 20 15 29 8 8 13 18 10 23 -3 4
2 11 11 14 8 3 13 10 10 15 -3 5 6 20 20 35 16 15 24 32 20 41 -3 9 0 15 9 15
8 0 15 9 15 20 0 11 5 20 10 20 6 0 10 9 10 20 0 11 5 20 11 20 6 0 9 8 7 18
-2 9 5 21 17 27 11 6 21 23 23 38 2 15 8 25 13 22 5 -4 9 1 9 10 0 9 7 27 16
40 9 14 13 25 9 25 -3 0 0 7 9 15 8 8 19 15 25 15 5 0 8 9 6 19 -2 11 3 22 12
25 8 4 13 13 10 20 -3 8 1 17 9 20 9 3 13 10 10 15 -3 5 6 21 19 35 14 15 25
34 25 42 0 7 5 14 10 14 6 0 10 9 10 20 0 11 5 20 10 20 6 0 10 8 10 18 0 10
9 24 20 32 11 8 20 22 20 32 0 10 5 18 10 18 6 0 10 9 10 20 0 11 5 20 10 20
6 0 10 9 10 20 0 11 5 20 10 20 6 0 10 5 10 11 0 6 7 17 15 26 8 8 13 18 10
23 -3 4 2 11 11 14 8 3 13 10 10 15 -3 5 1 14 10 21 8 7 13 19 10 26 -3 7 2
15 10 18 9 3 13 10 9 15 -3 5 -1 13 5 16 17 10 60 83 60 100 0 8 5 15 10 15 6
0 10 8 10 18 0 10 9 24 20 32 11 8 20 22 20 31 0 10 5 19 11 21 5 2 11 10 13
18 4 30 38 90 47 84 8 -5 13 10 7 20 -2 2 5 13 15 24 18 20 30 20 1834 20
1244 0 1818 3 1822 10 4 6 20 11 36 12 52 1 65 3 65 12 0 4 20 8 45 8 30 0 44
4 43 12 -2 8 7 12 24 10 14 -2 29 2 33 7 3 6 15 11 26 11 10 0 19 7 19 15 0 9
6 12 16 8 9 -3 20 0 25 8 4 8 13 15 19 15 5 1 15 2 21 3 5 0 8 5 4 10 -3 6 4
8 15 6 12 -2 23 2 27 10 3 8 9 13 13 10 5 -3 15 2 23 10 9 8 21 15 27 15 7 0
25 13 40 30 15 16 34 30 40 30 7 0 34 22 61 49 27 27 57 51 66 53 10 2 19 12
21 22 5 23 27 48 36 39 3 -4 6 -1 6 6 0 8 18 29 40 48 22 20 40 43 40 52 0 9
9 23 20 31 11 8 20 22 20 32 0 10 7 18 17 18 14 0 14 3 5 12 -19 19 -7532 19
-7532 1z"/>
</g>
</svg>
